<mxfile host="app.diagrams.net" modified="2023-06-14T03:00:09.567Z" agent="Mozilla/5.0 (X11; Linux x86_64) AppleWebKit/537.36 (KHTML, like Gecko) Chrome/114.0.0.0 Safari/537.36" version="21.3.8" etag="BogZ2Mqq2DvBMJGVeZwl" type="github">
  <diagram name="Page-1" id="WC504sPT-IJdlLZe-Pz7">
    <mxGraphModel>
      <root>
        <mxCell id="0" />
        <mxCell id="1" parent="0" />
      </root>
    </mxGraphModel>
  </diagram>
</mxfile>
